# xmcd
#
# Track frame offsets:
#	150
#	19749
#	36144
#	54782
#	72919
#	91077
#	109861
#	129112
#	148022
#	174657
#	197280
#	217479
#
# Disc length: 3169 seconds
#
# Revision: 1
# Processed by: cddbd v1.5.2PL0 Copyright (c) Steve Scherf et al.
# Submitted via: audiograbber 1.83.01
#
DISCID=a20c5f0c
DTITLE=Alanis Morissette - Havoc and bright Lights
DYEAR=2012
DGENRE=Folk-Rock
TTITLE0=Guardian
TTITLE1=Woman down
TTITLE2='til you
TTITLE3=Celebrity
TTITLE4=Empathy
TTITLE5=Lens
TTITLE6=Spiral
TTITLE7=Numb
TTITLE8=Havoc
TTITLE9=Win and win
TTITLE10=Receive
TTITLE11=Edge of Evolution
EXTD=
EXTT0=
EXTT1=
EXTT2=
EXTT3=
EXTT4=
EXTT5=
EXTT6=
EXTT7=
EXTT8=
EXTT9=
EXTT10=
EXTT11=
PLAYORDER=
